<?xml version="1.0" encoding="UTF-8"?>
<svg width="20px" height="20px" viewBox="0 0 18 22" version="1.1" xmlns="http://www.w3.org/2000/svg" xmlns:xlink="http://www.w3.org/1999/xlink">
    <g stroke="none" stroke-width="1" fill="none" fill-rule="evenodd">
        <path d="M6.2490962,18.7310347 C7.00641637,18.6499032 7.10634506,17.8170432 6.74954943,17.4531298 C6.45575585,17.153684 4.83438455,15.9027108 4.41134771,15.4108723 C4.21505343,15.1827952 3.94879288,15.0706924 3.83606943,14.8141688 C3.57677311,14.2240299 3.39505514,13.3817439 3.72399382,12.7771293 C3.78359472,12.6677196 3.82181704,12.7167015 3.77630657,12.9444419 C3.51798201,14.2348026 4.32648121,15.2891751 4.50447412,14.7483547 C4.62740098,14.374847 4.51354383,13.7067747 4.57913721,13.176222 C4.69542375,12.2373188 5.51785143,10.4342476 5.87901994,10.3312342 C5.32204303,9.25868289 6.53236245,8.4192583 6.51762418,7.47799857 C6.50774468,6.86580944 7.03475919,8.23056872 7.564527,8.51991519 C8.15600117,8.84292618 8.8061045,7.91092419 9.7291087,7.43793781 C9.99002461,7.30412137 10.3251177,7.15044288 10.3026054,7.03632019 C10.1940929,6.48590543 9.09050446,7.71533338 8.10449822,7.75674073 C7.65457619,7.77542453 7.48759648,7.66483661 7.3138145,7.49045444 C6.78841959,6.96259491 7.36742292,7.40309504 8.1483891,7.25631777 C8.4957911,7.19100862 8.61240156,7.13074914 8.98069627,6.97606071 C9.34915294,6.82137229 9.77024628,6.59228529 10.1871287,6.47462782 C10.4771972,6.39265474 10.4532273,6.16609258 10.3401799,6.09792194 C10.2750724,6.05870279 10.1788688,6.06257421 10.1025861,6.19958877 C9.92362143,6.52108485 9.08240651,6.70691295 8.82019493,6.79023261 C8.48299634,6.89728576 8.11000482,6.99743768 7.61489624,6.97656568 C6.86243484,6.94492104 7.03783641,6.586394 6.49948478,6.26557121 C6.34157478,6.1714789 6.38433195,5.92454971 6.59390686,5.706572 C6.70371504,5.59228099 7.00495874,5.52781345 7.15428491,5.26792342 C7.17517762,5.23139743 7.36758488,5.02234081 7.51853065,4.91394109 C7.57068144,4.87640516 7.57521629,3.9215113 7.10375371,3.90181756 C6.70322917,3.88498531 6.58937201,4.20765965 6.60621574,4.52932405 C6.62289752,4.85065181 6.7868,5.11575983 6.89596035,5.11458157 C7.1061831,5.11222506 6.90940294,5.3535996 6.79425011,5.39248211 C6.61933442,5.45173165 6.37963514,4.67694293 6.40716816,4.30495008 C6.43599686,3.91747156 6.63002371,3.23138882 7.10197216,3.24468631 C7.52695251,3.25663721 7.83483653,3.81025009 7.81928846,4.76531227 C7.8163732,4.92723857 8.50826194,4.68805222 8.73921544,4.94154599 C8.90408968,5.12282938 8.1736547,3.24956766 9.8005326,3.12063258 C10.2290761,3.2058038 10.6407758,3.35409597 10.8118044,4.37817039 C10.7484785,4.48471857 10.9183735,5.1990795 10.6538944,5.28391406 C10.3309482,5.38743244 10.1315767,5.26893336 10.3183154,4.94945715 C10.4461011,4.62846603 10.3212307,3.81210164 9.6678882,3.8610835 C9.01438374,3.91006537 9.10103179,5.11508654 9.27999646,5.13898834 C9.45928504,5.16272182 9.91050275,5.49549552 10.225513,5.55928977 C11.2589732,5.76834638 10.4997095,6.38423861 10.6338115,7.12973921 C10.7854051,7.97168863 11.318898,7.74933453 11.7984585,9.9789351 C11.8987111,10.1147714 12.2956726,10.2432015 12.6829165,11.9562202 C13.0311283,13.4970448 12.5379632,14.6177364 13.3752911,14.5258323 C13.5638113,14.5051286 13.8393036,14.4502555 13.9591532,14.0136268 C14.2727058,12.8725682 13.802215,11.5123536 13.3275132,10.594659 C13.0510492,10.0595616 12.7904572,9.6953116 12.653116,9.57007961 C13.1971362,9.90436821 13.89275,10.9718699 14.0532514,11.7646691 C14.2642839,12.8059124 14.4144199,13.2464125 14.0956846,14.3474104 C14.279832,14.4430176 14.737852,14.6453413 14.737852,14.8724084 C14.2608828,14.4647312 12.8000128,14.3923525 12.7624383,15.3671084 C12.5131835,15.3723264 12.3249871,15.3933667 12.1646478,15.5913141 C11.5772226,16.315606 12.1225384,17.7702495 12.0630995,18.5500879 C12.0106248,19.2365073 11.8274492,19.9166988 11.7239574,20.606148 C11.3744499,20.5923455 11.4086233,20.3263959 11.5208608,19.9532248 C11.6198178,19.6241542 11.7793474,19.2115956 11.7897127,18.8160376 C11.7992683,18.4580155 11.7615319,18.2344832 11.6748838,18.1789367 C11.5879119,18.1233903 11.4518663,18.2358297 11.2639939,18.5504246 C10.8628215,19.2216949 9.99391162,19.5169327 9.18249716,19.6228076 C8.37108269,19.7283458 7.61683975,19.6445212 7.21744891,19.1796143 C7.0809175,19.0205495 6.85449885,19.2230415 6.82761366,19.2651222 C6.79149681,19.3216785 6.95977218,19.4314248 7.08658606,19.6734727 C7.27186713,20.0266134 7.44791653,20.5623841 7.00916967,20.8069568 C7.01483823,19.5637264 6.63617815,19.4908427 6.2490962,18.7310347 L6.2490962,18.7310347 Z M5.95918964,18.6982118 C6.249906,19.1738913 7.27445847,21.1767614 5.4784954,21.4368198 C4.87778956,21.5236742 3.91073252,21.0735797 2.97363789,20.835235 C2.13177514,20.621297 1.27679371,20.4947184 0.798204939,20.3546741 C0.510079922,20.2708494 0.389744404,20.1632913 0.364640763,20.0377227 C0.298237583,19.7052856 0.714472149,19.2392005 0.735526816,18.8456624 C0.756581482,18.4521242 0.59737581,18.2472757 0.466998835,17.9264529 C0.336297942,17.6042835 0.302448516,17.3632456 0.406912055,17.2252211 C0.488215461,17.1179996 0.653413615,17.0730575 0.922265514,17.1003258 C1.2630272,17.1355052 1.67440299,17.0627898 1.89547699,16.9227455 C2.26782068,16.6864206 2.44289833,16.2028299 2.27543275,15.6199289 C2.27543275,16.190374 2.09549633,16.4063319 1.64444058,16.6670635 C1.21929827,16.9129828 0.563040507,16.7140255 0.261472896,16.9862031 C-0.101477167,17.3132538 0.391040076,18.1585697 0.350712291,18.7785017 C0.319778127,19.2551911 -0.158810644,19.7919718 0.0546512847,20.2700078 C0.269408886,20.7509054 1.27063927,20.8035903 2.31446486,21.0301525 C3.79833299,21.3529951 4.66335588,21.9145192 5.34892822,21.9407775 C6.34902489,21.9794917 6.50223808,20.912495 8.0725923,20.8980193 C8.53061228,20.8731075 8.97859081,20.8582951 9.42608345,20.8524039 C9.93317701,20.8458393 10.4396227,20.8500473 10.959673,20.8631765 C12.0047943,20.8894348 11.6454073,21.4561769 12.3233676,21.8182387 C12.8955686,22.1235758 13.9240081,22.0030568 14.1700238,21.7589891 C14.5031734,21.4289086 15.397025,20.6349311 16.0819495,20.2762357 C16.9356352,19.829171 18.9405254,19.059432 17.4851621,18.1208654 C17.14602,17.9018778 16.3438372,17.6707709 16.2764622,16.0706967 C15.9727891,16.3511221 16.0079342,17.841955 16.8553036,18.137866 C17.8017918,18.4682832 18.393266,19.0215594 16.6335818,19.6472144 C15.4682869,20.0611195 15.270535,20.188708 14.3481787,20.9865569 C13.4146471,21.7940002 12.0298979,21.4735141 12.2715407,19.7734563 C12.3977067,18.887743 12.4702643,18.1560448 12.2582601,17.3859692 C12.1544443,17.0102732 12.1029414,16.5275241 12.1738794,16.1893641 C12.3115446,15.5315596 12.6540878,15.3336122 12.9899907,15.9651585 C13.2006993,16.3615581 13.2747146,16.8247818 14.0294434,16.8626543 C15.2149831,16.9215672 15.4498236,15.6719406 15.8286457,15.6150475 C16.0814636,15.577175 16.3341196,14.8335259 16.1415504,13.6310296 C15.9353766,12.3436987 15.2065612,10.3105305 14.271734,9.27955488 C13.4948168,8.42279308 13.0052148,7.67140119 12.6970069,6.59918651 C12.4381965,5.6983242 12.294053,4.821532 12.3471755,3.98328568 C12.4161701,2.89710023 11.8366808,1.38556368 10.9138386,0.674569208 C10.3362929,0.229356049 9.43061831,-0.00915701159 8.61094393,0.00026905151 C8.15098044,0.00548705073 7.71838802,0.0751725886 7.38572429,0.262852238 C6.01733291,1.0349478 5.82622132,2.13779718 5.84679011,3.39651325 C5.86606323,4.57881088 5.90477142,5.92808448 6.03401468,7.21171229 C5.88096345,7.80100956 5.08428725,8.91833468 4.57411648,9.59818948 C3.88822022,10.3024511 3.54178998,11.6633389 3.09802238,12.8523694 C2.86123836,13.4862722 2.46249537,13.7725889 2.42896986,14.5876067 C2.41957624,14.8156837 2.42718831,15.4051493 2.63676322,15.2364901 C3.43878407,14.5916464 4.44276775,16.217474 5.95918964,18.6982118 L5.95918964,18.6982118 Z M10.122831,1.65521642 C10.0797499,1.78953782 9.90175696,1.90147231 10.0146424,1.99556462 C10.1275278,2.08965693 10.1924733,1.86410471 10.4198637,1.77960678 C10.4786548,1.75772485 10.7520416,1.7886962 10.8022489,1.65370151 C10.8241133,1.59478862 10.6611826,1.52762792 10.5643311,1.43117909 C10.4671557,1.33489859 10.3719239,1.24922241 10.2809029,1.25528202 C10.0454146,1.27093602 10.1610533,1.53621237 10.122831,1.65521642 L10.122831,1.65521642 Z M11.5168119,6.55811581 C11.6015164,6.46570673 11.6452453,6.71768559 11.8729596,6.8669877 C12.0535439,6.98548678 12.2291074,6.8976224 12.2746179,7.13748204 C12.3071717,7.3095077 12.2040038,7.49600909 12.065205,7.47177064 C11.824048,7.42952168 11.2667472,6.83147164 11.5168119,6.55811581 Z M7.75450487,5.04506436 C7.37924593,5.01594456 7.35349445,5.29788484 7.47771699,5.2931718 C7.60453086,5.28845877 7.5266286,5.07014442 7.75450487,5.04506436 Z M7.11087991,4.32498047 C7.15525667,4.31488111 7.21825871,4.39348775 7.19866167,4.5035707 C7.17145256,4.65640758 7.18327557,4.75218311 7.28514776,4.75251976 C7.3019915,4.75251976 7.3201309,4.74915331 7.3264473,4.70959751 C7.37535891,4.405102 7.22311748,4.18156965 7.16092523,4.16507404 C7.01759154,4.12703314 7.03492115,4.34181272 7.11087991,4.32498047 Z M9.8419941,4.19621371 C9.93722598,4.22567016 10.0288948,4.3968542 10.0488157,4.58184069 C10.0507592,4.59917791 10.1732002,4.55524572 10.17401,4.51484831 C10.181946,4.21708571 9.93706402,4.07704134 9.87325218,4.08310095 C9.72586952,4.0969034 9.76765493,4.1729852 9.8419941,4.19621371 L9.8419941,4.19621371 Z M8.44185876,5.08142203 C8.78310632,4.91697089 8.90247009,5.17164292 8.78472591,5.2125453 C8.66455235,5.25445762 8.6635806,5.0214992 8.44185876,5.08142203 Z M4.32129852,11.1228552 C4.15998738,11.1024882 4.36826662,10.9765829 4.45653427,10.8181914 C4.55354769,10.6438092 4.53476045,10.4261681 4.63679461,10.4583177 C4.7386668,10.4904673 4.68198116,10.6123329 4.61217684,10.8121318 C4.55257594,10.9823059 4.38073747,11.1302614 4.32129852,11.1228552 L4.32129852,11.1228552 Z" id="Opera-com-icons/-opera-icons-linux-logo-white" fill="#FFFFFF" fill-rule="nonzero"></path>
    </g>
</svg>
